<?xml version="1.0" encoding="UTF-8"?>
<svg width="256" height="42" version="1.1" viewBox="-2.85 -1.463 1536 252" xmlns="http://www.w3.org/2000/svg">
 <defs>
  <clipPath id="f">
   <path d="m163.13 702.83v-23.391c15.08 11.74 32.868 19.268 52.829 23.391z"/>
  </clipPath>
  <linearGradient id="g" x2="1" gradientTransform="scale(46.833 -46.833) rotate(53.018 17.422 -4.534)" gradientUnits="userSpaceOnUse">
   <stop stop-color="#fff" offset="0"/>
   <stop stop-color="#fff" offset="1"/>
  </linearGradient>
  <linearGradient id="b" x2="1" gradientTransform="rotate(53.018 11.03 43.218) scale(62.442)" gradientUnits="userSpaceOnUse">
   <stop stop-color="#fff" offset="0"/>
   <stop stop-color="#fff" stop-opacity="0" offset="1"/>
  </linearGradient>
  <mask id="h" maskUnits="userSpaceOnUse">
   <path d="m-32768 32767h65535v-65535h-65535z" fill="url(#b)"/>
  </mask>
 </defs>
 <g fill="#dbdcdc" fill-rule="evenodd">
  <path d="M242.31 70.673c-.07 2.639-1.337 5.066-3.273 7.143-3.236 3.518-8.197 6.122-11.752 7.494-.527.21-1.126.421-1.688.633-2.182.774-4.47 1.372-6.756 1.935l-2.323.564-4.573 1.055c-1.55.352-3.061.774-4.538 1.232a76.019 76.019 0 0 0-7.495-8.446s-.036-.034-.105-.07c-.846-.738-7.039-5.84-11.33-8.655-.21-.141-.422-.281-.599-.386a12.854 12.854 0 0 0-.95-.564c-.105-.071-.21-.14-.28-.176.246-.035.457-.035.703-.035-11.752-7.53-24.982-11.33-38.739-12.174-.105 0-.176-.035-.28 0-17.523-1.548-39.16 1.548-64.249 14.566a3.626 3.626 0 0 1-.528.281c-14.884 7.284-28.71 16.75-40.25 27.34V50.932a3.694 3.694 0 0 1 3.692-3.694h113.86l21.497.246c.176 0 2.042.071 5.068 2.815.246.247.527.528.879.915h.036c.035.106.105.141.175.212.07.034.14.105.212.176h.034c7.67 6.86 19.458 8.057 29.274 8.76 3.519.247 10.626.422 16.256 2.182 4.468 1.443 8.057 3.905 8.023 8.128"/>
  <path d="M200.5 125.5c-2.408 1.728-6.263 2.555-12.053 2.052-4.09-.355-8.093-.501-12.036-.413-41.695.694-73.981 24.887-89.179 62.534-1.935 4.8-3.59 9.806-4.948 15.006-35.447 16.629-71.026-12.318-66.994-49.243 3.81 42.05 31.12 28.742 50.157 11.89 5.096-4.506 9.6-9.26 12.893-13.293a99.437 99.437 0 0 1 8.906-9.541 92.641 92.641 0 0 1 11.639-9.26c26.998-18.078 58.368-17.945 82.192-16.498 15.981.96 20.455-2.807 16.482-20.795 4.683 9.526 10.058 22.45 2.94 27.56"/>
  <path d="M90.264 75.566c12.964-4.93 34.591-10.933 52.991-6.69 5.828-2.271 17.178-1.853 21.629.507 2.181-.478 5.736-.836 7.766-1.016-7.17-3.285-14.906-5.346-22.763-5.706-21.298-.956-42.299 4.601-59.623 12.905"/>
 </g>
 <path d="m49.131 53.127v31.187c20.106-15.653 43.822-25.69 70.437-31.187z" clip-path="url(#f)" fill="url(#g)" mask="url(#h)"/>
 <g fill="#338396">
  <path d="M214.97 222.87c-1.463-2.955-2.688-5.981-5.981-5.981h-24.77c-2.053 4.03-5.79 8.786-6.203 9.54v-21.873h-45.224v21.874c-.428-.755-4.15-5.51-6.217-9.541h-24.77c-3.278 0-4.504 3.026-5.967 5.981l-9.658 19.333c-1.463 2.924 2.702 5.968 5.98 5.968h126.49c3.28 0 7.43-3.044 5.967-5.968z"/>
  <path d="M188.73 51.593c-.167-.125-.292-.208-.416-.375.167.126.29.292.457.458z"/>
  <path d="M272.11 198.64c-2.92-.105-5.348-2.675-5.313-5.665.036-2.99 2.533-5.453 5.524-5.453 3.097 0 5.736 2.745 5.594 5.805-.176 2.92-2.885 5.384-5.805 5.313m-.492-93.732c3.06.07 5.417 2.533 5.383 5.524 0 2.99-2.463 5.418-5.49 5.418-3.096 0-5.418-2.252-5.488-5.384-.14-3.2 2.358-5.663 5.595-5.558m-.07 29.062c3.025.07 5.312 2.464 5.312 5.455 0 3.095-2.358 5.522-5.383 5.558-3.202.035-5.63-2.497-5.524-5.734.07-3.096 2.533-5.384 5.594-5.279m-26.987 17.629c3.061 0 5.455 2.356 5.49 5.383.034 3.2-2.5 5.665-5.7 5.594-3.027-.14-5.28-2.463-5.243-5.56.035-3.096 2.393-5.417 5.453-5.417m26.741 9.358c3.027.036 5.419 2.463 5.419 5.559 0 3.061-2.323 5.384-5.314 5.489-3.06.107-5.523-2.181-5.594-5.279-.14-3.271 2.288-5.805 5.49-5.769m4.538 21.78c-5.665-1.866-10.062.351-14.39 7.036H131.97l.528-.422.95-.704.106-.105h.034l14.708-9.852h106.57l.634-.352 7.846-4.539c3.027 3.272 6.475 4.328 10.59 3.308 4.716-1.232 8.128-5.384 8.339-10.169v-.247c.07-4.925-3.13-9.183-8.057-10.66-3.73-1.126-6.93-.353-9.958 2.427-.21.142-.386.318-.562.528-.352.283-.67.634-.95.986-1.583 1.9-2.498 4.327-2.498 6.966 0 .388.035.775.07 1.161l-7.178 4.152h-23.819v-.034h-70.3a375.075 375.075 0 0 1 8.479-4.751c.528-.245 1.09-.564 1.654-.845l10.942-5.7 1.232-.634h52.355c3.976 6.615 8.128 8.727 13.617 7.355 4.61-1.232 7.95-5.384 8.197-10.169.176-4.68-2.885-9.184-7.318-10.766-2.252-.81-4.573-.844-6.825-.176-3.836 1.127-5.947 4.117-7.53 7.213h-39.022c.071 0 .107-.035.176-.07h.036l-.036.035c1.443-.036 3.308-.74 5.35-1.794.176-.07.316-.105.492-.176l2.006-1.267c.316-.176.597-.352.915-.562l1.617-.986 1.232-.95a98.782 98.782 0 0 0 6.299-4.82l.316-.247s.036-.035.105-.07c.07-.07.247-.211.423-.351h20.794c2.569-3.73 4.926-7.25 7.354-10.766v-.036h3.553v-.035h2.394c2.532 3.448 4.01 7.528 6.825 10.801h5.7c4.222 6.79 8.62 9.077 14.004 7.46 4.925-1.479 8.127-5.7 8.057-10.626-.071-4.927-3.519-9.183-8.339-10.414-5.489-1.372-9.746.913-13.58 7.46-.88 0-1.76-.036-2.64-.142-2.322-3.765-4.469-7.318-6.686-10.906-2.11 0-4.186 0-6.192.035-1.09 0-2.146 0-3.237-.035-2.217-.036-3.553.738-4.68 2.567-1.758 2.885-3.834 5.596-5.77 8.34h-11.118c3.836-4.997 6.088-10.52 6.826-12.597h.035c.036-.14.07-.316.141-.458.07-.21.106-.386.106-.386.457-1.654.88-3.412 1.196-5.277.07-.74.212-1.443.28-2.147.072-.597.072-1.196.106-1.795h31.667c4.504 6.896 8.55 9.008 13.968 7.319 4.892-1.479 7.988-5.7 7.917-10.697-.034-4.713-3.237-8.936-7.88-10.273-5.49-1.69-9.5.387-14.075 7.494h-24.946c.106-.07.21-.105.316-.176l.036.176s28.5-15.446 41.131-30.717c3.484-4.292 5.419-9.675 5.419-15.34v-9.5c0-12.632-10.238-22.87-22.941-22.87h-5.947v-.035h-29.098v.035h-17.697c.07-6.192 5.172-15.552 17.804-17.91-12.632-.387-33.954 11.542-32.653 26.319.986 11.224 18.72 12.385 26.741 12.877 5.805.422 13.054 1.02 19.352 3.097 8.023 2.604 14.426 7.565 14.356 17.38 0 2.323-.352 4.363-.95 6.229-3.659 11.717-17.487 16.958-29.625 20.373a317.254 317.254 0 0 1-8.832 2.321c2.076 4.328 3.484 8.69 3.905 12.949.142.95.212 1.935.212 2.884 0 2.534-.352 4.961-1.126 7.318-.211.916-.634 1.866-1.02 2.78-.704 1.584-1.654 3.238-2.886 4.716-.21.281-.422.492-.597.773-.177.175-.353.422-.528.564-5.244 5.946-12.174 10.061-19.95 13.792-3.907 1.83-7.988 3.59-12.138 5.383-7.178 3.097-14.602 6.333-21.92 10.592-14.39 8.478-29.275 18.366-42.96 28.394-1.55 1.125-3.062 2.217-4.54 3.377-.529.423-1.057.81-1.549 1.232-.21.105-.317.21-.493.35.036-.14.107-.28.176-.42.107-.423.317-.774.388-1.162.421-1.16.914-2.252 1.406-3.377 11.401-27.093 31.315-44.546 60.132-52.073.071 0 .247-.072.316-.105 1.584-.388 3.238-.811 4.927-1.127 6.052-1.267 12.49-2.183 19.28-2.675-48.448-4.151-81.312 15.341-99.185 57.597-.247.6-.493 1.163-.74 1.76-.387.88-.703 1.76-1.055 2.604-.493 1.303-.916 2.464-1.408 3.694h26.178l.492-.07h.071l.247-.036c1.161-.35 4.609-1.477 6.932-3.13h101.79v.034h34.199c3.835 6.51 8.234 8.867 13.722 7.355 4.68-1.267 7.846-5.313 8.022-10.204.105-4.821-2.92-9.253-7.39-10.661"/>
  <path d="M684.88 153.39h22.659l-10.38 22.763c-1.196 2.604-3.132 4.399-5.77 5.384-2.675.987-5.314.88-7.918-.316-2.602-1.196-4.362-3.132-5.347-5.805-.986-2.64-.88-5.278.317-7.883z"/>
  <path d="M796.06 116.55h-22.625l-9.077-19.985c-1.408-3.027-3.519-5.418-6.333-7.143s-5.876-2.603-9.113-2.603c-3.378 0-6.439.88-9.184 2.604-2.779 1.723-4.855 4.115-6.263 7.142l-9.113 19.985h-22.729l12.948-28.43c3.13-6.72 7.776-12.104 13.898-16.114 6.157-4.01 12.948-6.016 20.442-6.016 7.39 0 14.145 2.006 20.338 6.016 6.192 4.01 10.801 9.394 13.826 16.114z"/>
  <path d="M819.63 175.42c-1.056 2.675-2.85 4.61-5.453 5.805-1.302.634-2.71.95-4.257.95-1.935 0-3.802-.527-5.526-1.618-1.724-1.09-3.025-2.533-3.904-4.398l-10.345-22.765h22.765l6.474 14.145c1.197 2.604 1.268 5.242.246 7.88"/>
  <path d="M486.33 121.33c2.001 2.063 3.005 4.504 3.005 7.322v29.459c0 2.929-1.032 5.425-3.09 7.486-5.748 5.533-12.53 9.684-20.343 12.449-7.81 2.767-16.492 4.15-26.037 4.15h-8.301c-9.548 0-18.256-1.437-26.121-4.311-7.868-2.875-14.674-7.081-20.425-12.614-5.534-5.207-9.71-11.445-12.53-18.716-2.715-6.835-4.071-14.321-4.071-22.46 0-3.903.327-7.73.979-11.472a52.53 52.53 0 0 1 3.092-10.821c2.82-7.161 6.997-13.453 12.53-18.878 5.75-5.536 12.557-9.737 20.425-12.614 7.865-2.874 16.573-4.312 26.12-4.312h8.302c8.135 0 15.785 1.085 22.946 3.254a69.238 69.238 0 0 1 9.842 3.906 47.127 47.127 0 0 1 8.712 5.535c2.28 1.735 3.604 4.014 3.989 6.834.377 2.822-.307 5.372-2.037 7.649-1.738 2.278-4.017 3.609-6.839 3.986-2.82.382-5.37-.297-7.649-2.033-3.577-2.821-7.836-4.936-12.773-6.346-4.937-1.41-10.333-2.116-16.192-2.116h-8.301c-6.51 0-12.397.869-17.657 2.604-5.265 1.736-9.74 4.23-13.428 7.486-3.69 3.255-6.508 7.188-8.462 11.798-1.954 4.613-2.93 9.793-2.93 15.541 0 5.753.976 10.932 2.93 15.542 1.954 4.612 4.773 8.545 8.462 11.8 3.688 3.255 8.162 5.753 13.428 7.487 5.26 1.736 11.148 2.603 17.657 2.603h8.301c5.859 0 11.201-.703 16.028-2.115 4.828-1.409 9.09-3.471 12.78-6.184V139.07h-39.714c-2.821 0-5.261-1.03-7.321-3.094-2.063-2.06-3.093-4.5-3.093-7.323 0-2.819 1.03-5.26 3.093-7.323 2.06-2.06 4.5-3.093 7.321-3.093h50.127c2.821 0 5.236 1.033 7.245 3.093"/>
  <path d="m519.12 65.98c2.821 0 5.264 1.033 7.327 3.092 2.058 2.064 3.09 4.504 3.09 7.324v95.37c0 2.929-1.032 5.397-3.09 7.404-2.063 2.009-4.506 3.011-7.327 3.011s-5.236-1.002-7.241-3.012c-2.008-2.006-3.008-4.474-3.008-7.403v-95.37c0-2.82 1-5.26 3.008-7.324 2.005-2.059 4.42-3.092 7.241-3.092"/>
  <path d="M664.26 77.139c0-5.832-2.857-9.522-4.84-9.522H557.85c-1.984 0-4.84 3.69-4.84 9.522 0 6.15 2.856 9.84 4.84 9.84h79.786l-81.57 72.049c-1.906 1.706-3.055 4.96-3.055 8.729v1.27c0 5.832 2.855 9.56 4.84 9.56h101.57c1.982 0 4.84-3.728 4.84-9.56 0-6.111-2.858-9.84-4.84-9.84h-76.355l76.195-68.311a13.443 13.443 0 0 0 3.906-6.212c.28-.956.492-1.777.617-2.328l-.043.037c.307-1.228.519-2.54.519-3.963z" fill="#338396"/>
  <path d="M956.32 69.086c-2.005-2.076-4.399-3.096-7.212-3.096-2.956 0-5.42 1.02-7.425 3.096-2.004 2.04-3.025 4.503-3.025 7.319v71.424L854.53 68.91c-1.514-1.513-3.272-2.427-5.279-2.78a9.597 9.597 0 0 0-5.77.846c-1.97.844-3.519 2.145-4.643 3.8-1.161 1.688-1.725 3.553-1.725 5.629v95.351c0 2.956 1.056 5.419 3.096 7.424 2.077 2.006 4.504 2.99 7.318 2.99 2.816 0 5.243-.984 7.25-2.99 2.005-2.005 3.025-4.468 3.025-7.424v-71.425l84.127 79.095c2.076 1.83 4.433 2.744 7.178 2.744 1.301 0 2.637-.247 4.045-.81 1.866-.843 3.344-2.146 4.47-3.8 1.16-1.689 1.724-3.623 1.724-5.805v-95.35c0-2.816-1.02-5.279-3.027-7.319"/>
 </g>
 <g fill="#5a5a59">
  <path d="M1097.7 68.18c1.412 1.464 2.116 3.173 2.116 5.127 0 2.062-.704 3.798-2.116 5.206-1.41 1.413-3.148 2.116-5.207 2.116h-46.71v94.23c0 2.062-.705 3.798-2.114 5.208-1.412 1.41-3.15 2.116-5.208 2.116-2.063 0-3.8-.706-5.207-2.116-1.412-1.41-2.116-3.145-2.116-5.208v-94.23h-46.546c-2.062 0-3.8-.703-5.206-2.116-1.412-1.408-2.116-3.144-2.116-5.207 0-1.953.704-3.662 2.116-5.126 1.405-1.465 3.144-2.197 5.206-2.197h107.9c2.06 0 3.796.732 5.207 2.197"/>
  <path d="M1234.7 167.54c1.956 0 3.665.705 5.13 2.116s2.197 3.145 2.197 5.207-.734 3.798-2.198 5.207c-1.464 1.411-3.173 2.116-5.129 2.116h-108.06c-2.063 0-3.8-.705-5.207-2.116-1.414-1.409-2.115-3.145-2.115-5.207s.7-3.796 2.116-5.207c1.406-1.41 3.143-2.116 5.206-2.116zm0-50.776c1.956 0 3.665.707 5.13 2.115 1.463 1.41 2.197 3.147 2.197 5.206 0 2.063-.734 3.801-2.198 5.21-1.464 1.41-3.173 2.114-5.129 2.114h-108.06c-2.063 0-3.8-.704-5.207-2.115-1.414-1.408-2.115-3.146-2.115-5.209 0-2.058.7-3.796 2.116-5.206 1.406-1.408 3.143-2.115 5.206-2.115zm0-50.777c1.956 0 3.665.732 5.13 2.197 1.463 1.464 2.197 3.174 2.197 5.127 0 2.062-.734 3.798-2.198 5.206-1.464 1.414-3.173 2.116-5.129 2.116h-108.06c-2.063 0-3.8-.702-5.207-2.116-1.414-1.408-2.115-3.144-2.115-5.206 0-1.954.7-3.663 2.116-5.127 1.406-1.465 3.143-2.197 5.206-2.197z"/>
  <path d="M1304.8 83.646c-6.076 2.008-11.226 4.91-15.461 8.706-4.232 3.8-7.487 8.381-9.762 13.753-2.28 5.37-3.418 11.366-3.418 17.982 0 6.73 1.139 12.776 3.417 18.146 2.276 5.37 5.531 9.927 9.763 13.67 4.234 3.743 9.385 6.62 15.461 8.627 6.077 2.008 12.858 3.01 20.344 3.01h8.626c15.73 0 27.994-4.231 36.78-12.694 1.52-1.409 3.255-2.087 5.211-2.034 1.952.054 3.632.841 5.043 2.36 1.517 1.521 2.25 3.254 2.197 5.206-.057 1.955-.841 3.637-2.361 5.045-5.752 5.536-12.557 9.714-20.422 12.532-7.867 2.824-16.681 4.234-26.447 4.234h-8.627c-9.76 0-18.609-1.438-26.526-4.314-7.92-2.874-14.756-7.08-20.508-12.614-5.423-5.313-9.549-11.554-12.366-18.716-2.823-6.94-4.23-14.428-4.23-22.458 0-7.81 1.407-15.297 4.23-22.458 2.711-6.942 6.836-13.182 12.366-18.716 5.752-5.534 12.586-9.737 20.508-12.613 7.918-2.874 16.765-4.313 26.526-4.313h8.627c9.766 0 18.606 1.439 26.526 4.313 7.921 2.876 14.756 7.079 20.508 12.613 1.517 1.522 2.304 3.254 2.361 5.207.053 1.953-.68 3.69-2.197 5.21-1.41 1.52-3.09 2.276-5.047 2.276-1.952 0-3.69-.702-5.206-2.114-4.341-4.124-9.63-7.296-15.868-9.521-6.24-2.222-13.262-3.337-21.077-3.337h-8.627c-7.485 0-14.266 1.005-20.344 3.011"/>
  <path d="M1523.1 65.98c1.927 0 3.619.732 5.068 2.197 1.447 1.464 2.173 3.174 2.173 5.128v101.55c0 2.063-.727 3.797-2.173 5.208-1.45 1.41-3.141 2.116-5.068 2.116-2.04 0-3.787-.705-5.236-2.116s-2.172-3.145-2.172-5.208v-41.99h-93.252v41.99c0 2.063-.704 3.797-2.114 5.208-1.412 1.41-3.15 2.116-5.208 2.116-2.061 0-3.8-.705-5.208-2.116-1.413-1.41-2.113-3.145-2.113-5.208V73.305c0-1.954.7-3.664 2.113-5.128 1.408-1.465 3.146-2.197 5.208-2.197 2.058 0 3.796.732 5.208 2.197 1.41 1.464 2.114 3.174 2.114 5.128v44.916h93.252V73.305c0-1.954.723-3.664 2.172-5.128 1.45-1.465 3.196-2.197 5.236-2.197"/>
 </g>
 <g fill="#e9533a">
  <path d="M163.5 84.886c-1.232.668-7.81-.563-14.953 2.815-1.021.492-2.076.633-3.027.457-3.694-.599-6.614-5.172-4.714-8.515 2.71-4.75 13.334-6.58 18.718-4.362 4.644 1.9 7.037 7.986 3.976 9.605M203.435 8.71c13.617-6.052 31.949-6.333 51.3-.739C219.83-8.037 181.338.76 169.868 28.942H43.588c-11.505 0-20.935 9.36-20.935 20.9v53.094c-.423.458-.81.95-1.196 1.443-.036 0-.106.105-.106.105-14.214 17.241-21.357 36.1-21.357 53.06 0 20.617 10.52 38.455 31.702 47.358-29.59-20.056-26.67-52.18-9.043-78.779 3.765-5.629 8.267-11.224 13.37-16.572 8.445-7.81 16.678-14.497 24.594-20.195 7.917-5.701 15.588-10.416 22.94-14.286.177-.07.353-.176.529-.281 25.087-13.018 46.726-16.114 64.248-14.566.105-.035.176 0 .28 0 16.398 1.477 29.204 6.966 37.93 12.138l-3.764.247v.034c-4.926.247-9.816.635-14.672 1.338-9.079-6.72-34.304-3.096-37.05 8.76-24.63 8.551-48.696 22.66-72.094 43.807 23.96-18.825 48.168-31.07 72.516-37.894 1.092 3.13 3.554 5.91 6.545 7.247 2.322 1.055 4.996 1.162 7.636-.176 12.736-6.333 24.453-4.046 26.634-5.278 2.181-1.196 2.814-3.8 2.252-6.685a16.43 16.43 0 0 0-.563-1.935c4.785-.21 9.57-.245 14.356-.14 3.87.105 7.741.281 11.576.597l7.494 8.446 9.114-2.287 2.32-.564c-52.952-57.351-118.78-34.692-159.49-10.801-.104.07-.244.14-.35.21-3.941 2.287-7.284 4.363-9.888 6.087-2.673 1.724-4.644 3.096-5.805 3.941-.844.599-1.266.915-1.266.915-2.147 1.513-4.187 2.956-6.018 4.363v-1.02l-.034.036V50.934A11.008 11.008 0 0 1 47.006 39.92h132.86c1.125 0 1.97-.984 1.9-2.111-.775-12.104 10.414-24.102 21.674-29.098" fill-rule="evenodd"/>
  <path d="M315.28 208.78h-7.432V29.98h7.432z"/>
  <path d="M672.32 122.07c.281-.07.563-.105.844-.14.141 0 .317 0 .459-.036.878.423 1.548 1.02 1.934 1.935-.036.352-.036.74-.105 1.09-.036.07-.036.142-.07.212-.353 1.161-1.409 1.83-2.569 1.724-1.161-.105-2.112-1.02-2.217-2.181-.141-1.127.599-2.252 1.724-2.604m152.36-.105c1.301-.071 2.393.949 2.463 2.252.105 1.442-.915 2.567-2.288 2.638-1.335.036-2.567-1.125-2.567-2.462-.036-1.196 1.161-2.394 2.392-2.428m-153.82 6.298c1.617.915 3.695.808 5.066-.528a2.8 2.8 0 0 1 1.495-.81h142.7c.632.106 1.185.329 1.72.81 1.759 1.548 4.256 1.477 5.91-.07a.977.977 0 0 0 .211-.177c1.655-1.653 1.655-4.433.035-6.122-.07-.07-.14-.176-.245-.21-1.655-1.585-4.082-1.725-5.84-.106-.882.81-1.762.985-2.85.985h-47.43c-.543 0-1.1-.018-1.652.035h-1.35c-.124-.012-.247-.035-.375-.035-11.296 0-22.625 0-33.954.035h-2.037c-.372-.015-.75 0-1.13 0-3.097-.035-6.193 0-9.289 0h-43.207c-1.021 0-1.9-.105-2.674-.95-.88-.985-2.111-1.337-3.448-1.02-.951.14-1.795.493-2.428 1.055a3.858 3.858 0 0 0-1.372 2.287c-.282 1.69.21 3.239 1.372 4.257.21.21.493.387.774.564"/>
  <path d="M685.48 136.39c-.035.07-.035.14-.07.176-.353 1.196-1.407 1.864-2.569 1.759s-2.112-1.056-2.217-2.216c-.14-1.127.564-2.218 1.724-2.57.247-.105.564-.105.845-.14.14 0 .282-.036.456-.036.846.423 1.55 1.02 1.936 1.936-.07.351-.034.738-.105 1.09m129.16-2.955c1.303-.07 2.392.95 2.499 2.252.07 1.407-.95 2.568-2.323 2.604-1.337.07-2.568-1.127-2.568-2.428 0-1.196 1.161-2.392 2.392-2.428m-48.203 4.856c1.765 0 3.527-.007 5.287-.012h13.236c2.82.057 5.642.117 8.463.117 4.188 0 8.41-.034 12.597-.07 1.162 0 2.287-.035 3.45-.035.948 0 1.617.245 2.355.915 1.795 1.618 4.434 1.478 6.088-.247 1.654-1.653 1.654-4.432.07-6.123-1.688-1.758-4.292-2.005-6.122-.316a3.44 3.44 0 0 1-1.864.903h-122.56a2.653 2.653 0 0 1-1.462-.833c-.88-.984-2.112-1.338-3.484-1.019-2.04.316-3.448 1.583-3.765 3.343-.387 2.04.457 3.869 2.146 4.82 1.619.913 3.695.808 5.067-.528.845-.844 1.69-.915 2.71-.915h46.971c.48 0 .967-.01 1.447-.012h8.546v.012z"/>
  <path d="M824.83 149.76c-1.336.072-2.568-1.125-2.568-2.427-.035-1.197 1.161-2.393 2.392-2.464a2.39 2.39 0 0 1 2.464 2.288c.105 1.408-.916 2.568-2.288 2.603m-149.4-1.9c-.035.07-.035.105-.07.176-.351 1.196-1.407 1.864-2.569 1.759a2.472 2.472 0 0 1-2.216-2.216c-.14-1.126.598-2.216 1.724-2.57.28-.105.563-.105.844-.14.14 0 .318-.034.458-.034.88.388 1.548 1.02 1.934 1.898-.034.388-.034.776-.105 1.127m152.28-3.764c-1.653-1.584-4.08-1.724-5.84-.141a3.36 3.36 0 0 1-1.87.938H677.4a2.63 2.63 0 0 1-1.476-.868c-.88-.95-2.112-1.301-3.45-.985-.949.14-1.793.492-2.426 1.056a3.867 3.867 0 0 0-1.374 2.287c-.28 1.688.211 3.237 1.374 4.257.21.21.492.386.773.562 1.619.916 3.695.81 5.067-.562.845-.808 1.689-.88 2.709-.88h46.972c.49 0 .983-.011 1.473-.012h11.697c1.275.014 2.56.046 3.824.046 1.123 0 2.224-.032 3.335-.046h5.66c.109 0 .22.012.329.012h24.559c1.383 0 2.788-.007 4.183-.012h13.176c3.21.044 6.42.118 9.629.118 2.602 0 5.242 0 7.846-.034 2.743 0 5.453-.038 8.197-.072.95 0 1.619.248 2.323.916 1.76 1.548 4.257 1.442 5.91-.071a.916.916 0 0 0 .211-.176c1.655-1.653 1.655-4.433.036-6.123-.07-.07-.141-.14-.247-.21"/>
 </g>
</svg>
